# xmcd CD database file
#
# Track frame offsets:
#	150
#	20177
#	38740
#	55747
#
# Disc length: 1008 seconds
#
# Revision: 0
# Processed by: cddbd v1.5PL3 Copyright (c) Steve Scherf et al.
# Submitted via: CDex 1.50beta8
#
DISCID=2d03ee04
DTITLE=北原愛子 - special Days!!
DYEAR=2003
DGENRE=JPop
TTITLE0=special Days!!
TTITLE1=振り向けば　いつもそこにいる
TTITLE2=雨の中
TTITLE3=special Days!!-instrumental-
EXTD=YEAR: 2003
EXTT0=
EXTT1=
EXTT2=
EXTT3=
PLAYORDER=
